<svg width="32" height="30" viewBox="0 0 32 30" fill="none" xmlns="http://www.w3.org/2000/svg">
<path fill-rule="evenodd" clip-rule="evenodd" d="M21 10H11C10.4696 10 9.96086 9.78929 9.58579 9.41421C9.21071 9.03914 9 8.53043 9 8V2C9 1.46957 9.21071 0.960859 9.58579 0.585786C9.96086 0.210714 10.4696 0 11 0H21C21.5304 0 22.0391 0.210714 22.4142 0.585786C22.7893 0.960859 23 1.46957 23 2V8C23 8.53043 22.7893 9.03914 22.4142 9.41421C22.0391 9.78929 21.5304 10 21 10ZM21 2H11V8H21V2ZM24.2002 15.8H7.8002V18.88H6.2002V14.2H15.2002V11H16.8002V14.2H25.8002V18.88H24.2002V15.8ZM2 20H12C12.5304 20 13.0391 20.2107 13.4142 20.5858C13.7893 20.9609 14 21.4696 14 22V28C14 28.5304 13.7893 29.0391 13.4142 29.4142C13.0391 29.7893 12.5304 30 12 30H2C1.46957 30 0.960859 29.7893 0.585786 29.4142C0.210714 29.0391 0 28.5304 0 28V22C0 21.4696 0.210714 20.9609 0.585786 20.5858C0.960859 20.2107 1.46957 20 2 20ZM2 22V28H12V22H2ZM30 20H20C19.4696 20 18.9609 20.2107 18.5858 20.5858C18.2107 20.9609 18 21.4696 18 22V28C18 28.5304 18.2107 29.0391 18.5858 29.4142C18.9609 29.7893 19.4696 30 20 30H30C30.5304 30 31.0391 29.7893 31.4142 29.4142C31.7893 29.0391 32 28.5304 32 28V22C32 21.4696 31.7893 20.9609 31.4142 20.5858C31.0391 20.2107 30.5304 20 30 20ZM20 28V22H30V28H20Z" fill="#1C69A0"/>
</svg>
