<svg width="15" height="19" viewBox="0 0 15 19" fill="none" xmlns="http://www.w3.org/2000/svg">
<path d="M3.64645 18.3536C3.84171 18.5488 4.15829 18.5488 4.35355 18.3536L7.53553 15.1716C7.7308 14.9763 7.7308 14.6597 7.53553 14.4645C7.34027 14.2692 7.02369 14.2692 6.82843 14.4645L4 17.2929L1.17157 14.4645C0.97631 14.2692 0.659728 14.2692 0.464466 14.4645C0.269203 14.6597 0.269203 14.9763 0.464465 15.1716L3.64645 18.3536ZM3.5 1L3.5 18L4.5 18L4.5 1L3.5 1Z" fill="#76767A"/>
<path d="M10.6464 0.646446C10.8417 0.451185 11.1583 0.451185 11.3536 0.646446L14.5355 3.82843C14.7308 4.02369 14.7308 4.34027 14.5355 4.53553C14.3403 4.7308 14.0237 4.7308 13.8284 4.53553L11 1.70711L8.17157 4.53553C7.97631 4.7308 7.65973 4.7308 7.46447 4.53553C7.2692 4.34027 7.2692 4.02369 7.46447 3.82843L10.6464 0.646446ZM10.5 18L10.5 1L11.5 1L11.5 18L10.5 18Z" fill="#76767A"/>
</svg>
