<svg width="48" height="50" viewBox="0 0 48 50" fill="none" xmlns="http://www.w3.org/2000/svg">
<path fill-rule="evenodd" clip-rule="evenodd" d="M3.58036 50H21.4286C22.4148 50 23.2143 49.2005 23.2143 48.2143C23.2143 47.2281 22.4148 46.4286 21.4286 46.4286H8.57143C5.81001 46.4286 3.57143 44.19 3.57143 41.4286V8.57143C3.57143 5.81 5.81001 3.57143 8.57143 3.57143H34.2857C37.0471 3.57143 39.2857 5.81 39.2857 8.57143V26.7857C39.2857 27.7719 40.0852 28.5714 41.0714 28.5714C42.0577 28.5714 42.8571 27.7719 42.8571 26.7857V3.56429C42.8562 2.61927 42.4804 1.71323 41.8121 1.045C41.1439 0.376771 40.2379 0.000945491 39.2929 0H3.56429C2.61927 0.000945491 1.71323 0.376771 1.045 1.045C0.376771 1.71323 0.000945491 2.61927 0 3.56429V46.4196C0.000945498 47.3689 0.378464 48.2791 1.04971 48.9503C1.72095 49.6215 2.63108 49.9991 3.58036 50ZM8.92857 11.6071C8.92857 10.1278 10.1278 8.92857 11.6071 8.92857H31.25C32.7293 8.92857 33.9286 10.1278 33.9286 11.6071C33.9286 13.0865 32.7293 14.2857 31.25 14.2857H11.6071C10.1278 14.2857 8.92857 13.0865 8.92857 11.6071ZM33.9286 21.4286C33.9286 20.4423 33.1291 19.6429 32.1429 19.6429C31.1566 19.6429 30.3571 20.4423 30.3571 21.4286C30.3571 22.4148 31.1566 23.2143 32.1429 23.2143C33.1291 23.2143 33.9286 22.4148 33.9286 21.4286ZM30.3571 30.3571C30.3571 29.3709 31.1566 28.5714 32.1429 28.5714C33.1291 28.5714 33.9286 29.3709 33.9286 30.3571C33.9286 31.3434 33.1291 32.1429 32.1429 32.1429C31.1566 32.1429 30.3571 31.3434 30.3571 30.3571ZM38.0268 41.5982C36.7496 42.8754 34.6789 42.8754 33.4018 41.5982L32.3482 40.5446C31.6529 39.8494 30.5256 39.8494 29.8304 40.5446C29.1351 41.2399 29.1351 42.3672 29.8304 43.0625L32.1788 45.4109C34.1314 47.3635 37.2972 47.3635 39.2498 45.4109L46.9554 37.7054C47.6506 37.0101 47.6506 35.8828 46.9554 35.1875C46.2601 34.4922 45.1328 34.4922 44.4375 35.1875L38.0268 41.5982ZM19.6429 39.2857C19.6429 38.2995 20.4423 37.5 21.4286 37.5C22.4148 37.5 23.2143 38.2995 23.2143 39.2857C23.2143 40.2719 22.4148 41.0714 21.4286 41.0714C20.4423 41.0714 19.6429 40.2719 19.6429 39.2857ZM12.5 39.2857C12.5 38.2995 11.7005 37.5 10.7143 37.5C9.72806 37.5 8.92857 38.2995 8.92857 39.2857C8.92857 40.2719 9.72806 41.0714 10.7143 41.0714C11.7005 41.0714 12.5 40.2719 12.5 39.2857ZM23.2143 30.3571C23.2143 29.3709 22.4148 28.5714 21.4286 28.5714C20.4423 28.5714 19.6429 29.3709 19.6429 30.3571C19.6429 31.3434 20.4423 32.1429 21.4286 32.1429C22.4148 32.1429 23.2143 31.3434 23.2143 30.3571ZM8.92857 30.3571C8.92857 29.3709 9.72806 28.5714 10.7143 28.5714C11.7005 28.5714 12.5 29.3709 12.5 30.3571C12.5 31.3434 11.7005 32.1429 10.7143 32.1429C9.72806 32.1429 8.92857 31.3434 8.92857 30.3571ZM19.6429 21.4286C19.6429 20.4423 20.4423 19.6429 21.4286 19.6429C22.4148 19.6429 23.2143 20.4423 23.2143 21.4286C23.2143 22.4148 22.4148 23.2143 21.4286 23.2143C20.4423 23.2143 19.6429 22.4148 19.6429 21.4286ZM12.5 21.4286C12.5 20.4423 11.7005 19.6429 10.7143 19.6429C9.72806 19.6429 8.92857 20.4423 8.92857 21.4286C8.92857 22.4148 9.72806 23.2143 10.7143 23.2143C11.7005 23.2143 12.5 22.4148 12.5 21.4286Z" fill="#628713"/>
</svg>
