<svg width="56" height="64" viewBox="0 0 56 64" fill="none" xmlns="http://www.w3.org/2000/svg">
<path d="M16 30.5V25.5C16 24.6716 16.6716 24 17.5 24H22.5C23.3284 24 24 24.6716 24 25.5V30.5C24 31.3284 23.3284 32 22.5 32H17.5C16.6716 32 16 31.3284 16 30.5ZM33.5 32H38.5C39.3284 32 40 31.3284 40 30.5V25.5C40 24.6716 39.3284 24 38.5 24H33.5C32.6716 24 32 24.6716 32 25.5V30.5C32 31.3284 32.6716 32 33.5 32ZM24 42.5V37.5C24 36.6716 23.3284 36 22.5 36H17.5C16.6716 36 16 36.6716 16 37.5V42.5C16 43.3284 16.6716 44 17.5 44H22.5C23.3284 44 24 43.3284 24 42.5ZM33.5 44H38.5C39.3284 44 40 43.3284 40 42.5V37.5C40 36.6716 39.3284 36 38.5 36H33.5C32.6716 36 32 36.6716 32 37.5V42.5C32 43.3284 32.6716 44 33.5 44ZM56 59.5V64H0V59.5C0 58.6716 0.671625 58 1.5 58H3.9375V10.6294C3.9375 9.17725 5.28062 8 6.9375 8H18V3C18 1.34312 19.3431 0 21 0H35C36.6569 0 38 1.34312 38 3V8H49.0625C50.7194 8 52.0625 9.17725 52.0625 10.6294V58H54.5C55.3284 58 56 58.6716 56 59.5ZM9.9375 57.875H24V49.5C24 48.6716 24.6716 48 25.5 48H30.5C31.3284 48 32 48.6716 32 49.5V57.875H46.0625V14H38V17C38 18.6569 36.6569 20 35 20H21C19.3431 20 18 18.6569 18 17V14H9.9375V57.875ZM33.25 8H30V4.75C30 4.55109 29.921 4.36032 29.7803 4.21967C29.6397 4.07902 29.4489 4 29.25 4H26.75C26.5511 4 26.3603 4.07902 26.2197 4.21967C26.079 4.36032 26 4.55109 26 4.75V8H22.75C22.5511 8 22.3603 8.07902 22.2197 8.21967C22.079 8.36032 22 8.55109 22 8.75V11.25C22 11.4489 22.079 11.6397 22.2197 11.7803C22.3603 11.921 22.5511 12 22.75 12H26V15.25C26 15.4489 26.079 15.6397 26.2197 15.7803C26.3603 15.921 26.5511 16 26.75 16H29.25C29.4489 16 29.6397 15.921 29.7803 15.7803C29.921 15.6397 30 15.4489 30 15.25V12H33.25C33.4489 12 33.6397 11.921 33.7803 11.7803C33.921 11.6397 34 11.4489 34 11.25V8.75C34 8.55109 33.921 8.36032 33.7803 8.21967C33.6397 8.07902 33.4489 8 33.25 8Z" fill="#1C69A0"/>
</svg>
