<svg width="68" height="68" viewBox="0 0 68 68" fill="none" xmlns="http://www.w3.org/2000/svg">
<path d="M55.6271 7.55176C50.4577 3.29684 44.1488 0.669427 37.4937 0V6.90251C42.4702 7.51759 47.0035 9.4995 50.787 12.4382L55.6271 7.55176V7.55176ZM61.1148 30.5829H68C67.3183 23.7146 64.5915 17.4613 60.4672 12.404L55.593 17.2563C58.5997 21.1174 60.5078 25.7225 61.1148 30.5829ZM55.593 50.7437L60.4672 55.6301C64.7058 50.4445 67.3259 44.1214 68 37.4513H61.1148C60.5012 42.2996 58.5935 46.8919 55.593 50.7437V50.7437ZM37.4937 61.0975V68C44.3449 67.3166 50.5825 64.5829 55.6271 60.4482L50.7529 55.5618C47.0035 58.5005 42.4702 60.4824 37.4937 61.0975ZM37.4937 34V16.9146H30.6767V34H17.0426L34.0852 51.0854L51.1278 34H37.4937ZM30.6767 61.0975V68C13.4637 66.2915 0 51.7347 0 34C0 16.2653 13.4637 1.70854 30.6767 0V6.90251C17.213 8.57688 6.81704 20.0583 6.81704 34C6.81704 47.9417 17.213 59.4231 30.6767 61.0975Z" fill="#23217C"/>
</svg>
