<svg width="54" height="54" viewBox="0 0 54 54" fill="none" xmlns="http://www.w3.org/2000/svg">
<path d="M26.5833 51.1667C40.1607 51.1667 51.1667 40.1607 51.1667 26.5833C51.1667 13.006 40.1607 2 26.5833 2C13.006 2 2 13.006 2 26.5833C2 40.1607 13.006 51.1667 26.5833 51.1667Z" stroke="#AB7E09" stroke-width="4" stroke-linecap="round" stroke-linejoin="round"/>
<path d="M35.1874 36.4167C35.5134 36.4167 35.8261 36.2872 36.0566 36.0567C36.2871 35.8262 36.4166 35.5135 36.4166 35.1875C36.4166 34.8615 36.2871 34.5489 36.0566 34.3184C35.8261 34.0879 35.5134 33.9584 35.1874 33.9584C34.8614 33.9584 34.5488 34.0879 34.3183 34.3184C34.0878 34.5489 33.9583 34.8615 33.9583 35.1875C33.9583 35.5135 34.0878 35.8262 34.3183 36.0567C34.5488 36.2872 34.8614 36.4167 35.1874 36.4167Z" fill="#AB7E09" stroke="#AB7E09" stroke-width="4" stroke-linecap="round" stroke-linejoin="round"/>
<path d="M17.9792 19.2083C18.3052 19.2083 18.6178 19.0788 18.8483 18.8483C19.0788 18.6178 19.2083 18.3052 19.2083 17.9792C19.2083 17.6532 19.0788 17.3405 18.8483 17.11C18.6178 16.8795 18.3052 16.75 17.9792 16.75C17.6532 16.75 17.3405 16.8795 17.11 17.11C16.8795 17.3405 16.75 17.6532 16.75 17.9792C16.75 18.3052 16.8795 18.6178 17.11 18.8483C17.3405 19.0788 17.6532 19.2083 17.9792 19.2083Z" fill="#AB7E09" stroke="#AB7E09" stroke-width="4" stroke-linecap="round" stroke-linejoin="round"/>
<path d="M36.4167 16.75L16.75 36.4167" stroke="#AB7E09" stroke-width="4" stroke-linecap="round" stroke-linejoin="round"/>
</svg>
