<svg width="46" height="56" viewBox="0 0 46 56" fill="none" xmlns="http://www.w3.org/2000/svg">
<path d="M2 7.2V48.8C2 50.1791 2.54786 51.5018 3.52304 52.477C4.49823 53.4521 5.82087 54 7.2 54H38.4C39.7791 54 41.1018 53.4521 42.077 52.477C43.0521 51.5018 43.6 50.1791 43.6 48.8V18.4892C43.5999 17.7965 43.4614 17.1107 43.1926 16.4722C42.9238 15.8338 42.5302 15.2554 42.0348 14.7712L30.4908 3.482C29.5193 2.53211 28.2147 2.00017 26.856 2H7.2C5.82087 2 4.49823 2.54786 3.52304 3.52304C2.54786 4.49823 2 5.82087 2 7.2V7.2Z" stroke="#333333" stroke-opacity="0.5" stroke-width="4" stroke-linecap="round" stroke-linejoin="round"/>
<path d="M15 30.6001H30.6" stroke="#333333" stroke-opacity="0.5" stroke-width="4" stroke-linecap="round" stroke-linejoin="round"/>
<path d="M15 41H22.8" stroke="#333333" stroke-opacity="0.5" stroke-width="4" stroke-linecap="round" stroke-linejoin="round"/>
<path d="M28 2V12.4C28 13.7791 28.5479 15.1018 29.523 16.077C30.4982 17.0521 31.8209 17.6 33.2 17.6H43.6" stroke="#333333" stroke-opacity="0.5" stroke-width="4" stroke-linejoin="round"/>
</svg>
