<svg width="68" height="68" viewBox="0 0 68 68" fill="none" xmlns="http://www.w3.org/2000/svg">
<path fill-rule="evenodd" clip-rule="evenodd" d="M0 34C0 15.2241 15.2241 0 34 0C52.7759 0 68 15.2241 68 34C68 52.7759 52.7759 68 34 68C15.2241 68 0 52.7759 0 34ZM5.76786 34C5.76786 49.5884 18.4116 62.2321 34 62.2321C49.5884 62.2321 62.2321 49.5884 62.2321 34C62.2321 18.4116 49.5884 5.76786 34 5.76786C18.4116 5.76786 5.76786 18.4116 5.76786 34ZM31.4241 49.933C30.7409 49.2499 30.3571 48.3233 30.3571 47.3571C30.3571 46.391 30.7409 45.4644 31.4241 44.7813C32.1073 44.0981 33.0339 43.7143 34 43.7143C34.9661 43.7143 35.8927 44.0981 36.5759 44.7813C37.2591 45.4644 37.6429 46.391 37.6429 47.3571C37.6429 48.3233 37.2591 49.2499 36.5759 49.933C35.8927 50.6162 34.9661 51 34 51C33.0339 51 32.1073 50.6162 31.4241 49.933ZM36.4286 38.25C36.4286 38.5839 36.1554 38.8571 35.8214 38.8571H32.1786C31.8446 38.8571 31.5714 38.5839 31.5714 38.25L29 17.6071C29 17.2732 31.8446 17 32.1786 17H35.8214C36.1554 17 38.5 17.2732 38.5 17.6071L36.4286 38.25Z" fill="#C20000"/>
</svg>
