<svg width="54" height="54" viewBox="0 0 54 54" fill="none" xmlns="http://www.w3.org/2000/svg">
<path d="M38.2702 17.4174H35.4436C34.8289 17.4174 34.2443 17.7127 33.8827 18.2189L24.4085 31.3573L20.1175 25.4028C19.7559 24.9026 19.1773 24.6013 18.5565 24.6013H15.73C15.3382 24.6013 15.1092 25.0473 15.3382 25.3667L22.8476 35.781C23.025 36.0286 23.2589 36.2303 23.5298 36.3695C23.8007 36.5087 24.1009 36.5813 24.4055 36.5813C24.7101 36.5813 25.0103 36.5087 25.2813 36.3695C25.5522 36.2303 25.7861 36.0286 25.9635 35.781L38.6559 18.1828C38.8909 17.8633 38.6619 17.4174 38.2702 17.4174Z" fill="#1D9F65"/>
<path d="M27 0C12.0897 0 0 12.0897 0 27C0 41.9103 12.0897 54 27 54C41.9103 54 54 41.9103 54 27C54 12.0897 41.9103 0 27 0ZM27 49.4196C14.621 49.4196 4.58036 39.379 4.58036 27C4.58036 14.621 14.621 4.58036 27 4.58036C39.379 4.58036 49.4196 14.621 49.4196 27C49.4196 39.379 39.379 49.4196 27 49.4196Z" fill="#1D9F65"/>
</svg>
