<svg width="56" height="39" viewBox="0 0 56 39" fill="none" xmlns="http://www.w3.org/2000/svg">
<path d="M19.9502 18.9053L9.2121 12.1585L12.9443 4.86571L23.6848 11.6086L19.9502 18.9053ZM41.3821 25.1294L23.2379 13.7418L21.3724 17.3921L39.5143 28.781L41.3821 25.1294ZM43.5848 26.5139L41.7135 30.1616L51.0702 36.0296L52.9416 32.3858L43.5848 26.5139ZM41.0648 30.1616C40.9213 30.4463 40.5293 30.5139 40.1886 30.3059C39.8491 30.0927 39.6986 29.6884 39.8433 29.3998L42.0308 25.1294C42.1813 24.8396 42.5733 24.7694 42.9105 24.9852C43.2453 25.1983 43.397 25.6117 43.2523 25.9016L41.0648 30.1616ZM54.869 32.5002C54.5086 32.2775 54.1014 32.1661 53.6894 32.1778L51.2966 36.8473C51.4891 37.2386 51.7761 37.5804 52.1541 37.8092C53.2088 38.4748 54.5353 38.0913 55.1151 36.9617L55.7288 35.7527C56.3098 34.6152 55.9271 33.1658 54.869 32.5002ZM24.7231 10.2033C24.6555 10.3371 24.5649 10.4548 24.4565 10.5495C24.3481 10.6443 24.2239 10.7143 24.0912 10.7556C23.9585 10.7969 23.8197 10.8086 23.683 10.7902C23.5462 10.7717 23.414 10.7233 23.2939 10.6479L13.8952 4.74351C13.7749 4.66874 13.6691 4.56811 13.584 4.44746C13.4989 4.32681 13.4361 4.18853 13.3994 4.04064C13.3626 3.89276 13.3525 3.73821 13.3697 3.58595C13.3869 3.4337 13.4311 3.28676 13.4997 3.15367C13.6389 2.88478 13.8679 2.6882 14.1368 2.60685C14.4057 2.5255 14.6925 2.56599 14.9347 2.71948L24.3311 8.61609C24.451 8.69094 24.5564 8.79156 24.6411 8.91213C24.7258 9.0327 24.7883 9.17082 24.8247 9.31846C24.8612 9.46611 24.871 9.62035 24.8535 9.77225C24.8361 9.92415 24.7918 10.0707 24.7231 10.2033ZM26.0403 7.63982C25.9027 7.90951 25.6748 8.10745 25.4065 8.19029C25.1382 8.27313 24.8513 8.23412 24.6088 8.08181L15.2065 2.1787C15.0866 2.10459 14.9811 2.0046 14.8962 1.88456C14.8113 1.76452 14.7487 1.62684 14.7121 1.47956C14.6755 1.33228 14.6656 1.17835 14.683 1.02676C14.7004 0.875163 14.7447 0.728948 14.8133 0.596649C14.8812 0.462232 14.9721 0.344079 15.0811 0.248982C15.19 0.153885 15.3148 0.083721 15.4481 0.0425253C15.5815 0.00132949 15.7208 -0.0100858 15.8582 0.00893585C15.9955 0.0279575 16.1281 0.0770414 16.2484 0.153364L25.6471 6.05127C25.7672 6.12614 25.8727 6.22681 25.9575 6.34744C26.0424 6.46808 26.1049 6.60628 26.1415 6.75404C26.1781 6.9018 26.188 7.05618 26.1706 7.20823C26.1532 7.36028 26.1089 7.50698 26.0403 7.63982ZM18.0975 23.1665C17.9577 23.4343 17.7288 23.6299 17.4605 23.7112C17.1922 23.7924 16.906 23.7527 16.6637 23.6007L7.25792 17.6963C7.13797 17.6212 7.03255 17.5203 6.94774 17.3996C6.86292 17.2789 6.80039 17.1406 6.76373 16.9928C6.72708 16.8451 6.71703 16.6907 6.73417 16.5385C6.7513 16.3864 6.79528 16.2395 6.86358 16.1064C7.00409 15.8395 7.23292 15.6445 7.50098 15.5633C7.76903 15.4821 8.05496 15.5212 8.29743 15.6723L17.6985 21.5767C17.9407 21.7285 18.1187 21.9814 18.1935 22.2795C18.2684 22.5777 18.2338 22.8967 18.0975 23.1665ZM19.4112 20.5939C19.3426 20.7281 19.2508 20.8459 19.1413 20.9404C19.0317 21.035 18.9064 21.1045 18.7726 21.145C18.6388 21.1855 18.4992 21.1961 18.3617 21.1762C18.2242 21.1564 18.0916 21.1065 17.9715 21.0294L8.57276 15.1315C8.33171 14.9784 8.15481 14.7253 8.08071 14.4275C8.0066 14.1296 8.04131 13.8111 8.17726 13.5416C8.24589 13.4079 8.33748 13.2906 8.4468 13.1964C8.55612 13.1022 8.68103 13.0328 8.81439 12.9924C8.94776 12.952 9.08697 12.9412 9.22407 12.9607C9.36117 12.9802 9.49348 13.0296 9.61344 13.1061L19.0111 19.0041C19.131 19.0791 19.2366 19.1798 19.3216 19.3004C19.4067 19.4209 19.4696 19.559 19.5067 19.7066C19.5439 19.8542 19.5546 20.0086 19.5382 20.1608C19.5218 20.3131 19.4787 20.4602 19.4112 20.5939ZM3.63887 31.0963H20.2104V33.2191H3.63887V31.0963ZM23.8294 35.5239C23.7773 35.1744 23.6156 34.8569 23.3732 34.6277C23.1307 34.3985 22.8232 34.2725 22.5053 34.2721H1.34868C1.0306 34.272 0.722843 34.3978 0.480303 34.6271C0.237763 34.8564 0.0762224 35.1742 0.0245003 35.5239H0V39H23.8539V35.5239H23.8294Z" fill="#C71F1F"/>
</svg>
