<svg width="47" height="41" viewBox="0 0 47 41" fill="none" xmlns="http://www.w3.org/2000/svg">
<path d="M23.1624 0.00289979C24.8752 0.00289979 26.5179 0.683326 27.7291 1.89449C28.9403 3.10566 29.6207 4.74835 29.6207 6.4612C29.6207 8.17405 28.9403 9.81674 27.7291 11.0279C26.5179 12.2391 24.8752 12.9195 23.1624 12.9195C21.4492 12.9195 19.8061 12.2389 18.5947 11.0275C17.3832 9.81604 16.7026 8.17298 16.7026 6.45975C16.7026 4.74652 17.3832 3.10345 18.5947 1.89202C19.8061 0.680579 21.4492 0 23.1624 0V0.00289979ZM23.1624 2.9029C22.2187 2.9029 21.3136 3.27779 20.6463 3.9451C19.979 4.61241 19.6041 5.51748 19.6041 6.4612C19.6041 7.40492 19.979 8.30999 20.6463 8.9773C21.3136 9.64461 22.2187 10.0195 23.1624 10.0195C24.1065 10.0195 25.0119 9.64445 25.6795 8.97687C26.3471 8.30929 26.7221 7.40385 26.7221 6.45975C26.7221 5.51564 26.3471 4.61021 25.6795 3.94263C25.0119 3.27504 24.1065 2.9 23.1624 2.9V2.9029Z" fill="#6C62DA"/>
<path d="M2.94663 24.6819C2.94663 25.0665 2.79386 25.4353 2.52194 25.7072C2.25001 25.9791 1.88119 26.1319 1.49663 26.1319C1.11207 26.1319 0.743253 25.9791 0.471326 25.7072C0.199398 25.4353 0.0466309 25.0665 0.0466309 24.6819V17.4725C0.0467246 16.7622 0.307503 16.0766 0.779505 15.5458C1.25151 15.015 1.9019 14.6759 2.60733 14.5928L2.94663 14.5725H10.9419C10.52 15.3006 10.2626 16.1123 10.1879 16.9505L10.1647 17.4725H2.94373V24.6819H2.94663Z" fill="#6C62DA"/>
<path d="M44.9211 26.1319C45.3056 26.1319 45.6744 25.9791 45.9464 25.7072C46.2183 25.4353 46.3711 25.0665 46.3711 24.6819V17.4725L46.3508 17.1361C46.2683 16.4302 45.9295 15.7791 45.3986 15.3065C44.8678 14.8339 44.1818 14.5727 43.4711 14.5725H35.3975C35.8209 15.3062 36.0935 16.1472 36.1573 17.0404L36.1718 17.4754H43.4711V24.6819C43.4711 25.0665 43.6238 25.4353 43.8958 25.7072C44.1677 25.9791 44.5365 26.1319 44.9211 26.1319Z" fill="#6C62DA"/>
<path d="M30.3714 14.5725C31.0827 14.572 31.7693 14.8328 32.3008 15.3055C32.8323 15.7782 33.1715 16.4297 33.254 17.1361L33.2714 17.4725V24.6819C33.2714 25.0665 33.1186 25.4353 32.8467 25.7072C32.5748 25.9791 32.206 26.1319 31.8214 26.1319C31.4368 26.1319 31.068 25.9791 30.7961 25.7072C30.5242 25.4353 30.3714 25.0665 30.3714 24.6819V17.4725H15.9642V24.6819C15.9642 25.0665 15.8114 25.4353 15.5395 25.7072C15.2676 25.9791 14.8988 26.1319 14.5142 26.1319C14.1296 26.1319 13.7608 25.9791 13.4889 25.7072C13.217 25.4353 13.0642 25.0665 13.0642 24.6819V17.4725C13.0643 16.7622 13.3251 16.0766 13.7971 15.5458C14.2691 15.015 14.9195 14.6759 15.6249 14.5928L15.9642 14.5725H30.3714Z" fill="#6C62DA"/>
<path d="M43.1752 7.36873C43.1752 5.897 42.5906 4.48556 41.5499 3.44489C40.5092 2.40422 39.0978 1.81958 37.6261 1.81958C36.1543 1.81958 34.7429 2.40422 33.7022 3.44489C32.6615 4.48556 32.0769 5.897 32.0769 7.36873C32.0769 8.84046 32.6615 10.2519 33.7022 11.2926C34.7429 12.3332 36.1543 12.9179 37.6261 12.9179C39.0978 12.9179 40.5092 12.3332 41.5499 11.2926C42.5906 10.2519 43.1752 8.84046 43.1752 7.36873ZM34.9769 7.36873C34.9769 6.66613 35.256 5.99231 35.7528 5.4955C36.2496 4.99869 36.9235 4.71958 37.6261 4.71958C38.3287 4.71958 39.0025 4.99869 39.4993 5.4955C39.9961 5.99231 40.2752 6.66613 40.2752 7.36873C40.2752 8.07133 39.9961 8.74515 39.4993 9.24196C39.0025 9.73877 38.3287 10.0179 37.6261 10.0179C36.9235 10.0179 36.2496 9.73877 35.7528 9.24196C35.256 8.74515 34.9769 8.07133 34.9769 7.36873Z" fill="#6C62DA"/>
<path d="M8.74641 1.82129C10.2181 1.82129 11.6296 2.40593 12.6703 3.4466C13.7109 4.48726 14.2956 5.89871 14.2956 7.37044C14.2956 8.84216 13.7109 10.2536 12.6703 11.2943C11.6296 12.3349 10.2181 12.9196 8.74641 12.9196C7.27469 12.9196 5.86324 12.3349 4.82257 11.2943C3.78191 10.2536 3.19727 8.84216 3.19727 7.37044C3.19727 5.89871 3.78191 4.48726 4.82257 3.4466C5.86324 2.40593 7.27469 1.82129 8.74641 1.82129ZM8.74641 4.72129C8.04382 4.72129 7.37 5.00039 6.87318 5.49721C6.37637 5.99402 6.09727 6.66784 6.09727 7.37044C6.09727 8.07304 6.37637 8.74686 6.87318 9.24367C7.37 9.74048 8.04382 10.0196 8.74641 10.0196C9.44901 10.0196 10.1228 9.74048 10.6196 9.24367C11.1165 8.74686 11.3956 8.07304 11.3956 7.37044C11.3956 6.66784 11.1165 5.99402 10.6196 5.49721C10.1228 5.00039 9.44901 4.72129 8.74641 4.72129Z" fill="#6C62DA"/>
<path d="M1.45 29.0319C1.06544 29.0319 0.696623 29.1846 0.424695 29.4566C0.152768 29.7285 0 30.0973 0 30.4819V33.3819C0 35.3047 0.763837 37.1488 2.12348 38.5084C3.48311 39.868 5.32718 40.6319 7.25 40.6319H39.15C41.0728 40.6319 42.9169 39.868 44.2765 38.5084C45.6362 37.1488 46.4 35.3047 46.4 33.3819V30.4819C46.4 30.0973 46.2472 29.7285 45.9753 29.4566C45.7034 29.1846 45.3346 29.0319 44.95 29.0319H1.45ZM2.9 33.3819V31.9319H43.5V33.3819C43.5 34.5356 43.0417 35.642 42.2259 36.4578C41.4101 37.2736 40.3037 37.7319 39.15 37.7319H7.25C6.09631 37.7319 4.98987 37.2736 4.17409 36.4578C3.3583 35.642 2.9 34.5356 2.9 33.3819Z" fill="#6C62DA"/>
</svg>
