<svg width="80" height="80" viewBox="0 0 80 80" fill="none" xmlns="http://www.w3.org/2000/svg">
<path fill-rule="evenodd" clip-rule="evenodd" d="M32.048 33.1622C28.7675 33.1622 25.5607 32.1891 22.8335 30.3661C20.1062 28.543 17.981 25.952 16.7267 22.9207C15.4724 19.8895 15.1455 16.5544 15.7873 13.3373C16.4291 10.1202 18.0107 7.16576 20.3321 4.84783C22.6534 2.5299 25.6102 0.952637 28.8282 0.315624C32.0463 -0.321389 35.3809 0.0104734 38.4103 1.26922C41.4397 2.52797 44.0276 4.65703 45.8466 7.387C47.6656 10.117 48.6339 13.3252 48.6291 16.6056C48.6161 20.997 46.8642 25.2044 43.7568 28.3072C40.6493 31.4101 36.4393 33.1558 32.048 33.1622ZM32.048 4.93019C29.7388 4.93019 27.4815 5.61494 25.5614 6.89786C23.6414 8.18077 22.145 10.0042 21.2613 12.1376C20.3776 14.271 20.1464 16.6186 20.5969 18.8834C21.0474 21.1482 22.1593 23.2286 23.7922 24.8614C25.425 26.4943 27.5054 27.6063 29.7702 28.0568C32.035 28.5073 34.3826 28.276 36.516 27.3924C38.6494 26.5087 40.4729 25.0122 41.7558 23.0922C43.0387 21.1722 43.7234 18.9148 43.7234 16.6056C43.7234 13.5091 42.4933 10.5394 40.3038 8.34985C38.1142 6.16028 35.1445 4.93019 32.048 4.93019ZM36.316 74.5413C35.78 74.0051 35.3664 73.359 35.1039 72.6477C34.8414 71.9363 34.7361 71.1765 34.7953 70.4206H5.85194V56.2433C9.32981 52.5322 13.5482 49.5929 18.234 47.6154C22.9199 45.638 27.9687 44.6666 33.0538 44.764H34.8198C34.7072 43.9417 34.7859 43.1044 35.0496 42.3174C35.3134 41.5303 35.7552 40.8148 36.3406 40.2263L36.6349 39.9565C36.0554 39.9565 35.4387 39.9193 34.8253 39.8823C34.2185 39.8457 33.6149 39.8093 33.0538 39.8093C27.0699 39.6673 21.1292 40.8567 15.6612 43.2916C10.1933 45.7265 5.33471 49.3461 1.43685 53.8885C1.11842 54.3131 0.946289 54.8295 0.946289 55.3602V70.4206C0.946289 71.7216 1.46313 72.9694 2.38312 73.8894C3.30311 74.8094 4.55088 75.3262 5.85194 75.3262H37.0028L36.316 74.5413ZM73.7475 52.5394L78.6532 54.0356C78.7931 54.127 78.9043 54.2561 78.9737 54.4081C79.0432 54.56 79.0681 54.7286 79.0456 54.8941V60.0451C79.0479 60.2382 78.9867 60.4268 78.8715 60.5818C78.7563 60.7369 78.5935 60.8499 78.4079 60.9036L73.5022 62.3998C73.152 63.5841 72.675 64.7272 72.0796 65.8092L74.5324 70.4205C74.6327 70.5645 74.6864 70.7357 74.6864 70.9111C74.6864 71.0865 74.6327 71.2577 74.5324 71.4017L70.8041 74.7375C70.6712 74.8774 70.4962 74.97 70.3057 75.001C70.1152 75.032 69.9198 74.9998 69.7494 74.9092L65.1136 72.4564C64.039 73.0431 62.9041 73.5119 61.7287 73.8545L60.2324 78.8828C60.1753 79.0663 60.0614 79.2269 59.9071 79.3415C59.7528 79.4561 59.5661 79.5188 59.374 79.5205H54.3457C54.1544 79.5152 53.9694 79.4511 53.8159 79.337C53.6623 79.2229 53.5475 79.0643 53.4872 78.8828L52.0155 73.9771C50.8243 73.6348 49.6731 73.1661 48.5815 72.579L43.9947 75.0318C43.8197 75.1205 43.6211 75.1516 43.4273 75.1208C43.2335 75.0899 43.0544 74.9987 42.9155 74.8601L39.3589 71.3036C39.2229 71.1677 39.135 70.9912 39.1084 70.8009C39.0819 70.6105 39.1181 70.4167 39.2117 70.2488L41.6646 65.5639C41.0489 64.4684 40.5554 63.3087 40.1929 62.1054L35.2872 60.6092C35.1153 60.5641 34.9616 60.4667 34.8473 60.3305C34.7331 60.1943 34.664 60.026 34.6495 59.8489V54.8206C34.6472 54.6274 34.7084 54.4389 34.8236 54.2838C34.9388 54.1287 35.1016 54.0157 35.2872 53.9621L40.1929 52.4904C40.5708 51.2655 41.0894 50.0884 41.7381 48.9828L39.2853 44.5187C39.1936 44.3461 39.1584 44.149 39.1848 43.9553C39.2113 43.7617 39.2979 43.5812 39.4325 43.4394L43.0627 39.9074C43.1932 39.7638 43.3685 39.6686 43.5601 39.6374C43.7516 39.6062 43.9481 39.6409 44.1174 39.7357L48.5815 42.1885C49.7004 41.5679 50.8851 41.0742 52.1136 40.7168L53.6098 35.8112C53.6635 35.6256 53.7765 35.4627 53.9315 35.3475C54.0866 35.2323 54.2752 35.1712 54.4683 35.1734H59.4966C59.6877 35.1626 59.8772 35.2141 60.0364 35.3203C60.1957 35.4265 60.3161 35.5815 60.3796 35.7621L61.8758 40.6678C63.0959 41.0375 64.2721 41.5392 65.3834 42.164L69.8966 39.7111C70.0696 39.6145 70.2702 39.5788 70.466 39.61C70.6617 39.6411 70.8413 39.7372 70.9758 39.8828L74.5324 43.4394C74.6833 43.5695 74.7885 43.7445 74.8326 43.9387C74.8767 44.1329 74.8575 44.3362 74.7777 44.5187L72.3249 49.0809C72.92 50.1802 73.3969 51.3396 73.7475 52.5394ZM52.434 64.1444C53.785 65.0428 55.3723 65.5197 56.9947 65.5149C59.159 65.5084 61.2328 64.6458 62.7632 63.1154C64.2935 61.585 65.1562 59.5112 65.1626 57.347C65.1675 55.7246 64.6905 54.1373 63.7922 52.7863C62.8939 51.4353 61.6146 50.3814 60.1166 49.7583C58.6187 49.1352 56.9694 48.9709 55.378 49.2863C53.7865 49.6016 52.3245 50.3823 51.1773 51.5295C50.0301 52.6768 49.2493 54.1388 48.934 55.7302C48.6187 57.3217 48.783 58.9709 49.4061 60.4689C50.0292 61.9669 51.083 63.2461 52.434 64.1444Z" fill="#1C69A0"/>
</svg>
