<svg width="33" height="24" viewBox="0 0 33 24" fill="none" xmlns="http://www.w3.org/2000/svg">
<path d="M31.8214 9.51219H27.8438V5.3561C27.8438 4.70854 27.3171 4.18537 26.6652 4.18537H15.0636L10.7434 0.0804877C10.6884 0.0293698 10.6161 0.000641329 10.5408 0H1.17857C0.526674 0 0 0.523171 0 1.17073V22.8293C0 23.4768 0.526674 24 1.17857 24H26.8862C27.365 24 27.7996 23.711 27.98 23.2683L32.9153 11.122C32.9705 10.9829 33 10.8329 33 10.6829C33 10.0354 32.4733 9.51219 31.8214 9.51219ZM2.65179 2.63415H9.59431L13.9992 6.81951H25.192V9.51219H6.40848C5.92969 9.51219 5.49509 9.80122 5.31462 10.2439L2.65179 16.8V2.63415ZM26.0501 21.3659H3.49888L7.30346 12H29.8584L26.0501 21.3659Z" fill="#333333"/>
</svg>
